<?xml version="1.0" encoding="utf-8"?>
<!-- Generator: Adobe Illustrator 23.0.3, SVG Export Plug-In . SVG Version: 6.00 Build 0)  -->
<svg version="1.1" id="Layer_1" xmlns:sketch="http://www.bohemiancoding.com/sketch/ns"
	 xmlns="http://www.w3.org/2000/svg" xmlns:xlink="http://www.w3.org/1999/xlink" x="0px" y="0px" viewBox="0 0 500 500"
	 style="enable-background:new 0 0 500 500;" xml:space="preserve">
<style type="text/css">
	.st0{fill:#26FFBA;fill-opacity:0.7;}
	.st1{fill:#26FFBA;fill-opacity:0.7;filter:url(#Adobe_OpacityMaskFilter);}
	.st2{mask:url(#mask0_1_);}
</style>
<g>
	<path class="st0" d="M159.9,71.9l23.1,109.6L96.5,296.9l118.2,37.5L237.7,444l-219-69.2l-18.7-92.3l129.7-170.2L159.9,71.9z
		 M318.4,426.7l-25.9-109.6L389,203.1l-132.6-38.9L230.5,56l260.8,76.4l8.6,83.7L318.4,426.7z"/>
	<g>
		<path class="st0" d="M159.9,71.9l23.1,109.6L96.5,296.9l118.2,37.5L237.7,444l-219-69.2l-18.7-92.3l129.7-170.2L159.9,71.9z
			 M318.4,426.7l-25.9-109.6L389,203.1l-132.6-38.9L230.5,56l260.8,76.4l8.6,83.7L318.4,426.7z"/>
		<defs>
			<filter id="Adobe_OpacityMaskFilter" filterUnits="userSpaceOnUse">
				<feColorMatrix  type="matrix" values="1 0 0 0 0  0 1 0 0 0  0 0 1 0 0  0 0 0 1 0"/>
			</filter>
		</defs>
		<mask maskUnits="userSpaceOnUse" id="mask0_1_">
			<path class="st1" d="M159.9,71.9l23.1,109.6L96.5,296.9l118.2,37.5L237.7,444l-219-69.2l-18.7-92.3l129.7-170.2L159.9,71.9z
				 M318.4,426.7l-25.9-109.6L389,203.1l-132.6-38.9L230.5,56l260.8,76.4l8.6,83.7L318.4,426.7z"/>
		</mask>
		<g class="st2">
		</g>
	</g>
</g>
</svg>
